<svg width="350" height="281" fill="none" xmlns="http://www.w3.org/2000/svg"><g clip-path="url(#a)"><mask id="b" style="mask-type:alpha" maskUnits="userSpaceOnUse" x="-49" y="-11" width="440" height="292"><path fill="#C4C4C4" d="M-49-11h440v292H-49z"/></mask><g mask="url(#b)"><path d="M169.262 307.114c80.196 0 145.209-65.012 145.209-145.209s-65.013-145.21-145.209-145.21c-80.197 0-145.21 65.013-145.21 145.21s65.013 145.209 145.21 145.209Z" fill="#EBF3F7"/><mask id="c" style="mask-type:alpha" maskUnits="userSpaceOnUse" x="20" y="169" width="172" height="171"><path d="m119.5 169 28.642 27.5 43.358 6-43.358 136.855L20 267.322 119.5 169Z" fill="#C4C4C4"/></mask><g mask="url(#c)"><path d="m26.59 382.312 124.023-196.247a8.574 8.574 0 1 0-14.499-9.164L12.092 373.147a8.576 8.576 0 1 0 14.499 9.165Z" fill="#11A4AA"/><path d="m60.612 360.332 124.022-196.246a8.578 8.578 0 0 0-9.135-12.949 8.583 8.583 0 0 0-5.364 3.784L46.114 351.168a8.575 8.575 0 1 0 14.498 9.164Z" fill="#174290"/></g><mask id="d" style="mask-type:alpha" maskUnits="userSpaceOnUse" x="122" y="100" width="102" height="102"><circle cx="173" cy="151" r="51" fill="#C4C4C4"/></mask><g mask="url(#d)"><path d="m-111.395 598.875 270.496-428.021a18.706 18.706 0 0 0-31.622-19.988l-270.496 428.02a18.702 18.702 0 0 0 5.817 25.805 18.702 18.702 0 0 0 25.805-5.816Z" fill="#11A4AA"/><path d="m-60.479 586.923 270.496-428.02a18.702 18.702 0 0 0-5.817-25.805 18.702 18.702 0 0 0-25.805 5.816L-92.101 566.935a18.704 18.704 0 1 0 31.622 19.988Z" fill="#174290"/></g><path d="M266.293 276.804c-3.104-6.569-12.839-10.554-14.488-11.788" stroke="#174290" stroke-width=".97" stroke-linecap="round" stroke-linejoin="round"/><path d="M36.984 255.627c-3.57-5.659-1.739-12.299-5.034-16.089-3.294-3.79-6.582-4.651-8.753-7.552-2.226-2.963.742-4.609-2.363-9.384-3.104-4.775-2.257-8.356-1.127-9.345 1.131-.988 3.945.222 6.107 4.127 2.162 3.905 6.488 1.615 9.32 4.73 2.832 3.114 3.777 7.407 6.52 10.608 2.745 3.201 6.542 1.565 11.564 6.245s3.747 11.553 7.162 15.488c3.416 3.935 10.339 2.666 14.798 7.9 4.46 5.235 3.924 16.783-5.646 22.261-9.57 5.479-16.006 1.815-19.812-4.864-3.153-5.532.484-9.987-1.331-14.094-1.815-4.108-8.883-6.025-11.405-10.031Z" fill="#51C1C7"/><path d="M36.984 255.627c-3.57-5.659-1.739-12.299-5.034-16.089-3.294-3.79-6.582-4.651-8.753-7.552-2.226-2.963.742-4.609-2.363-9.384-3.104-4.775-2.257-8.356-1.127-9.345 1.131-.988 3.945.222 6.107 4.127 2.162 3.905 6.488 1.615 9.32 4.73 2.832 3.114 3.777 7.407 6.52 10.608 2.745 3.201 6.542 1.565 11.564 6.245s3.747 11.553 7.162 15.488c3.416 3.935 10.339 2.666 14.798 7.9 4.46 5.235 3.924 16.783-5.646 22.261-9.57 5.479-16.006 1.815-19.812-4.864-3.153-5.532.484-9.987-1.331-14.094-1.815-4.108-8.883-6.025-11.405-10.031Z" fill="#125A6A"/><path d="M19.707 213.257c6.41 9.733 42.522 61.301 50.868 70.686M30.25 228.613l-6.205 1.462M31.752 230.77l2.48-6.695M44.86 249.355l-6.999 2.53M47.45 252.985l4.451-10.753M63.65 275.191l6.04-10.008M61.758 272.666l-10.026 2.058" stroke="#52C1C6" stroke-linecap="round" stroke-linejoin="round"/><path d="M95.626 273.413c-15.251-32.274-31.351-40.18-38.92-45.736 7.963 10.171 23.833 37.183 25.758 40.917-10.193-11.64-20.574-19.509-28.639-23.934 10.238 11.055 18.861 23.331 21.88 33.76-6.868-9.298-17.977-14.794-25.358-15.476 7.779 3.798 16.675 15.59 18.188 17.586-11.113-8.258-15.662-9.584-19.726-10.362 6.281 4.442 13.813 8.589 17.444 15.714 3.631 7.126 28.114 1.588 28.114 1.588l1.26-14.057Z" fill="#174290"/></g><path d="M329.982 224.859c-1.924-5.933-10.534-8.438-19.893-.37a73.126 73.126 0 0 0 6.491-8.75c-1.583-.758-3.633-1.951-3.58-2.404.052-.514 2.93-.722 5.441-.665 5.271-9.097 8.621-19.03 2.896-21.103-4.292-1.556-10.569.915-16.711 5.513 1.15 1.922 2.58 4.596 1.906 5.043-.77.514-3.186-.881-5.272-2.302a59.281 59.281 0 0 0-12.461 15.343c.188-1.844 2.339-8.9-4.987-10.478-3.423-.736-6.344.881-8.894 4.366 1.604.866 3.668 2.082 3.623 2.489-.058.525-2.256.513-5.347.256-2.177 3.968-4.047 9.405-5.688 15.955-3.534 14.14 3.08 30.957 3.08 30.957s27.783 1.223 40.196-2.17c12.413-3.392 12.386-12.376 1.092-13.596a45.247 45.247 0 0 0 7.521-3.106c-.731-2.298-1.725-5.811-1.062-6.124.822-.385 2.45 2.079 3.784 4.526 6.326-4.145 9.218-9.247 7.865-13.38Z" fill="#174290"/><path d="M130.424 280.525h174.042c0-6.724-8.458-7.097-9.44-7.097 3.814-5.541 4.559-21.794-9.235-21.918-.128-12.56-10.161-36.205-38.175-36.581-28.014-.376-38.87 29.927-39.44 36.022-5.044-2.173-12.09-.244-13.798 4.004-8.109-10.033-43.82-13.149-47.592 18.481-3.395-3.81-13.7 2.2-16.362 7.089Z" fill="#005988"/><path d="M206.742 272.536a3.306 3.306 0 1 0 0-6.612 3.306 3.306 0 0 0 0 6.612ZM250.451 250.059a2.569 2.569 0 1 0-.001-5.137 2.569 2.569 0 0 0 .001 5.137ZM170.451 263.059a2.569 2.569 0 1 0-.001-5.137 2.569 2.569 0 0 0 .001 5.137ZM274.401 271.438a4.808 4.808 0 1 0-.001-9.617 4.808 4.808 0 0 0 .001 9.617ZM245.107 229.494a3.71 3.71 0 1 0-.001-7.42 3.71 3.71 0 0 0 .001 7.42Z" fill="#EF7E5B"/><path d="M338.67 280.404H.194" stroke="#D6DEE7" stroke-linecap="round" stroke-linejoin="round"/><path d="M55.343 82.055c2.565-7.63.195-15.32-5.292-17.178C44.566 63.02 38.038 67.7 35.474 75.33c-2.564 7.63-.195 15.32 5.292 17.178 5.487 1.857 12.013-2.822 14.578-10.453Z" fill="#14438E"/><path d="M49.52 80.05c2.038-6.067.148-12.184-4.223-13.664-4.37-1.48-9.567 2.24-11.606 8.306-2.038 6.067-.148 12.184 4.223 13.664 4.37 1.48 9.567-2.24 11.605-8.306Z" fill="#FDC306"/><path d="m43.135 79.475-3.954-1.338a1.428 1.428 0 0 1-.888-1.828c.266-.758 1.066-1.159 1.821-.891l3.954 1.337a1.428 1.428 0 0 1 .888 1.828c-.266.758-1.066 1.16-1.821.892Z" fill="#fff"/><path d="M43.712 80.01a1.87 1.87 0 0 0 1.866-1.873 1.87 1.87 0 0 0-1.866-1.872 1.87 1.87 0 0 0-1.865 1.872 1.87 1.87 0 0 0 1.865 1.873Z" fill="#14438E"/><path d="m46.645 69.8-4.487-1.516 2.798-15.694 4.487 1.516L46.645 69.8Z" fill="#FDC306"/><path d="m47.089 67.437-.444 2.363-4.487-1.516.4-2.096" stroke="#14438E" stroke-width=".238" stroke-miterlimit="10" stroke-linecap="round" stroke-linejoin="round"/><path d="m49.443 54.106-.355 1.917-4.665-.357.533-3.076 4.487 1.516Z" fill="#14438E"/><path d="m73.832 78.984 4.487 1.516 7.24-14.178-4.486-1.516-7.241 14.178Z" fill="#FDC306"/><path d="M71.21 43.227c12.617 4.28 9.819 17.254 8.13 22.248 0 0 3.776 1.293 6.353 2.14 1.91-5.751 3.598-18.28-14.482-24.388ZM72.055 40.64c-20.524-6.955-27.498 10.3-28.298 12.752 1.6.535 4.487 1.516 6.175 2.096 1.955-5.796 7.419-19.84 22.123-14.847Z" fill="#14438E"/><path d="M72.055 40.64c-14.749-4.993-20.169 9.052-22.123 14.848.8.267 1.377.446 1.377.446 1.688-4.994 7.285-17.032 19.902-12.752C89.29 49.29 87.603 61.864 85.693 67.57c.444.134.844.268 1.2.402.844-2.452 5.73-20.376-14.838-27.331Z" fill="#14438E"/><path d="M81.15 90.766c2.04-6.067.149-12.185-4.222-13.664-4.37-1.48-9.566 2.239-11.605 8.306-2.039 6.067-.148 12.184 4.222 13.663 4.371 1.48 9.567-2.239 11.606-8.305Z" fill="#FDC306"/><path d="M79.396 90.184c2.564-7.63.195-15.32-5.292-17.178C68.617 71.15 62.09 75.83 59.526 83.46c-2.564 7.63-.194 15.32 5.292 17.178 5.487 1.857 12.014-2.822 14.578-10.453Z" fill="#14438E"/><path d="M73.865 88.288c1.788-5.32.92-10.417-1.94-11.385-2.86-.969-6.628 2.56-8.415 7.88-1.788 5.32-.92 10.417 1.94 11.385s6.627-2.56 8.415-7.88ZM49.932 55.488c1.954-5.796 7.374-19.84 22.123-14.847M85.693 67.615c1.91-5.707 3.598-18.28-14.482-24.388" stroke="#fff" stroke-width=".238" stroke-miterlimit="10" stroke-linecap="round" stroke-linejoin="round"/><path d="M195.477 14.788 157.294 1.933a5.795 5.795 0 0 0-7.318 3.623l-4.68 14.047a5.77 5.77 0 0 0 3.634 7.296l38.134 12.806a5.795 5.795 0 0 0 7.318-3.623l4.729-13.997c1.046-2.978-.597-6.254-3.634-7.297ZM156.945 3.075c-.448-.15-.896-.249-1.344-.249.448 0 .896.1 1.344.249Z" fill="#14438E"/><path d="M188.01 36.975 149.826 24.12c-2.389-.794-3.684-3.425-2.887-5.808l4.729-13.997c.797-2.382 3.435-3.673 5.825-2.878l38.184 12.855c2.389.794 3.683 3.425 2.887 5.807l-4.729 13.997c-.797 2.383-3.435 3.673-5.825 2.879Z" fill="#FDC306"/><path d="M196.075 13.15 157.891.295a5.795 5.795 0 0 0-7.318 3.623l-4.729 13.997a5.77 5.77 0 0 0 3.634 7.297l38.183 12.855a5.795 5.795 0 0 0 7.318-3.623l4.73-13.997c.996-3.028-.647-6.304-3.634-7.297Zm-8.065 23.825L149.826 24.12c-2.389-.794-3.684-3.425-2.887-5.808l4.729-13.997c.797-2.382 3.435-3.673 5.825-2.878l38.183 12.855c2.39.794 3.684 3.425 2.888 5.807l-.896 2.68c-.15.447-.548.745-1.046.745h-.448c-.746 0-1.443.447-1.692 1.191l-1.145 3.326c-.249.695 0 1.489.597 1.936l.398.297c.399.298.548.745.399 1.192l-.897 2.68c-.796 2.333-3.435 3.623-5.824 2.829Z" fill="#14438E"/><path d="M195.776 27.693c.44 0 .797-.355.797-.794a.796.796 0 0 0-.797-.794.796.796 0 0 0-.797.794c0 .439.357.794.797.794Z" fill="#fff" stroke="#14438E" stroke-width=".255" stroke-miterlimit="10"/><path d="M172.776 28.587c5.224 0 9.459-4.223 9.459-9.43 0-5.21-4.235-9.431-9.459-9.431-5.224 0-9.459 4.222-9.459 9.43 0 5.209 4.235 9.43 9.459 9.43Z" fill="#fff"/><path d="m171.98 12.753 6.123 8.19-9.857 2.879 3.734-11.069Z" fill="#F07E5B"/><path d="M145.844 17.915a5.77 5.77 0 0 0 3.634 7.297l38.183 12.855a5.795 5.795 0 0 0 7.318-3.623" stroke="#fff" stroke-width=".255" stroke-miterlimit="10" stroke-linecap="round" stroke-linejoin="round"/><path d="M60.35 168.764 41 179.415 58.832 210l19.35-10.651-17.832-30.585Z" fill="#14438E"/><path d="m67.168 165-6.84 3.765 17.831 30.585L85 195.585 67.168 165Z" fill="#14438E"/><path d="M63.223 203.404c4.394 0 7.956-3.461 7.956-7.73 0-4.27-3.562-7.731-7.956-7.731s-7.956 3.461-7.956 7.731c0 4.269 3.562 7.73 7.956 7.73Z" fill="#FDC306"/><path d="M63.223 198.139c1.401 0 2.537-1.104 2.537-2.465 0-1.362-1.136-2.466-2.537-2.466s-2.537 1.104-2.537 2.466c0 1.361 1.136 2.465 2.537 2.465Z" fill="#fff"/><path d="M55.016 187.335c3.27 0 5.92-2.576 5.92-5.752 0-3.177-2.65-5.752-5.92-5.752s-5.92 2.575-5.92 5.752c0 3.176 2.65 5.752 5.92 5.752Z" fill="#FDC306"/><path d="M55.016 183.439c1.056 0 1.911-.831 1.911-1.856 0-1.026-.855-1.857-1.91-1.857-1.056 0-1.911.831-1.911 1.857 0 1.025.855 1.856 1.91 1.856Z" fill="#fff"/><path d="m60.341 168.77 17.823 30.586" stroke="#fff" stroke-width=".253" stroke-miterlimit="10" stroke-linecap="round" stroke-linejoin="round"/><path d="m273.214 88.262-6.767 15.548c-1.177 2.764.049 5.973 2.746 7.158l32.852 14.561c2.746 1.234 5.933-.049 7.11-2.764l6.766-15.549-42.707-18.954Z" fill="#14438E"/><path d="m278.596 97.319-4.044 9.264 27.068 11.974 4.044-9.264-27.068-11.974Z" fill="#FDC306"/><path d="m281.353 101.145 15.74 7.009M280.422 103.218l7.158 3.159M279.539 105.242l11.179 4.936" stroke="#fff" stroke-width=".32" stroke-miterlimit="10" stroke-linecap="round" stroke-linejoin="round"/><path d="m272.919 95.517-1.373-5.924 5.884-1.382c.785 3.258-1.225 6.516-4.511 7.306Z" fill="#14438E"/><path d="M277.43 88.163c.785 3.258-1.275 6.565-4.511 7.355" stroke="#fff" stroke-width=".307" stroke-miterlimit="10" stroke-linecap="round" stroke-linejoin="round"/><path d="M274.341 92.556c.65 0 1.177-.53 1.177-1.185a1.18 1.18 0 0 0-1.177-1.184c-.65 0-1.176.53-1.176 1.184a1.18 1.18 0 0 0 1.176 1.185Z" stroke="#fff" stroke-width=".307" stroke-miterlimit="10" stroke-linecap="round" stroke-linejoin="round"/><path d="M315.921 74.194c-.686-2.913-3.579-4.739-6.472-4.048l-34.961 8.243c-2.892.692-4.707 3.604-4.02 6.516l1.078 4.64L317 78.834l-1.079-4.64Z" fill="#FDC306"/><mask id="e" style="mask-type:alpha" maskUnits="userSpaceOnUse" x="270" y="70" width="47" height="20"><path d="M315.921 74.194c-.686-2.913-3.579-4.739-6.472-4.048l-34.961 8.243c-2.892.692-4.707 3.604-4.02 6.516l1.078 4.64L317 78.834l-1.079-4.64Z" fill="#FDC306"/></mask><g mask="url(#e)" fill="#14438E"><path d="m286.609 48.266-24.894 40.39 5.5 3.435 24.893-40.39-5.499-3.435ZM297.681 55.13l-24.894 40.39 5.499 3.435 24.894-40.39-5.499-3.435ZM308.69 62.006l-24.894 40.39 5.5 3.435 24.893-40.39-5.499-3.435ZM319.736 68.912l-24.894 40.39 5.5 3.435 24.894-40.39-5.5-3.435Z"/></g><rect x="199" y="212.5" width="19" height="62" rx="8" transform="rotate(-30 199 212.5)" fill="#FDC300"/><rect x="212.458" y="216.246" width="6.852" height="46.249" rx="3.426" transform="rotate(-30 212.458 216.246)" fill="#FFDC66"/><rect x="193.1" y="196.597" width="13.139" height="23.707" rx="6" transform="rotate(-30 193.1 196.597)" fill="#018489"/><rect x="203.088" y="198.176" width="3.763" height="12.799" rx="1.881" transform="rotate(-30 203.088 198.176)" fill="#11A4AA"/><path d="M190.366 199.52c-25.646 10.061-54.991-3.22-65.451-29.883-10.46-26.663 2.027-56.355 27.673-66.416 25.646-10.06 54.992 3.22 65.451 29.883 10.46 26.663-2.027 56.355-27.673 66.416Z" stroke="#174290" stroke-width="5"/><circle cx="172.5" cy="150.5" r="52" stroke="#FDC300" stroke-width="7"/></g><defs><clipPath id="a"><path fill="#fff" d="M0 0h350v281H0z"/></clipPath></defs></svg>